<?xml version="1.0" encoding="utf-8"?>
<!-- Generator: Adobe Illustrator 19.1.0, SVG Export Plug-In . SVG Version: 6.00 Build 0)  -->
<!DOCTYPE svg PUBLIC "-//W3C//DTD SVG 1.1//EN" "http://www.w3.org/Graphics/SVG/1.1/DTD/svg11.dtd">
<svg version="1.1" id="Layer_1" xmlns="http://www.w3.org/2000/svg" xmlns:xlink="http://www.w3.org/1999/xlink" x="0px" y="0px"
	 viewBox="0 0 90 54.3" style="enable-background:new 0 0 90 54.3;" xml:space="preserve">
<style type="text/css">
	.st0{clip-path:url(#SVGID_2_);fill:#E2231A;}
</style>
<g>
	<defs>
		<rect id="SVGID_1_" y="0" width="90" height="54.3"/>
	</defs>
	<clipPath id="SVGID_2_">
		<use xlink:href="#SVGID_1_"  style="overflow:visible;"/>
	</clipPath>
	<path class="st0" d="M46.6,47.1c-1.8,0-3.4-0.7-4.6-1.9L17.2,20.3c-2.6-2.6-2.6-6.7,0-9.3c2.5-2.5,6.8-2.5,9.3,0l20.2,20.2
		l20.2-20.2c2.5-2.5,6.8-2.5,9.3,0c2.6,2.6,2.6,6.7,0,9.3L51.3,45.2C50,46.4,48.4,47.1,46.6,47.1 M21.8,13.1c-0.7,0-1.4,0.3-1.9,0.8
		c-1,1-1,2.7,0,3.7l24.8,24.8c1,1,2.7,1,3.7,0l24.8-24.8c1-1,1-2.7,0-3.7c-1-1-2.7-1-3.7,0l-23,23l-23-23
		C23.2,13.3,22.5,13.1,21.8,13.1"/>
</g>
</svg>
