<?xml version="1.0" encoding="utf-8"?>
<!-- Generator: Adobe Illustrator 19.1.0, SVG Export Plug-In . SVG Version: 6.00 Build 0)  -->
<!DOCTYPE svg PUBLIC "-//W3C//DTD SVG 1.1//EN" "http://www.w3.org/Graphics/SVG/1.1/DTD/svg11.dtd">
<svg version="1.1" id="Layer_1" xmlns="http://www.w3.org/2000/svg" xmlns:xlink="http://www.w3.org/1999/xlink" x="0px" y="0px"
	 viewBox="-448.1 339.9 54.3 90" style="enable-background:new -448.1 339.9 54.3 90;" xml:space="preserve">
<style type="text/css">
	.st0{clip-path:url(#SVGID_2_);fill:#E2231A;}
</style>
<g>
	<g>
		<defs>
			<rect id="SVGID_1_" x="-448.1" y="339.9" width="54.3" height="90"/>
		</defs>
		<clipPath id="SVGID_2_">
			<use xlink:href="#SVGID_1_"  style="overflow:visible;"/>
		</clipPath>
		<path class="st0" d="M-401,383.2c0,1.8-0.7,3.4-1.9,4.6l-24.9,24.8c-2.6,2.6-6.7,2.6-9.3,0c-2.5-2.5-2.5-6.8,0-9.3l20.2-20.2
			l-20.2-20.2c-2.5-2.5-2.5-6.8,0-9.3c2.6-2.6,6.7-2.6,9.3,0l24.9,24.9C-401.8,379.9-401,381.5-401,383.2 M-435,408.1
			c0,0.7,0.3,1.4,0.8,1.9c1,1,2.7,1,3.7,0l24.8-24.8c1-1,1-2.7,0-3.7l-24.8-24.8c-1-1-2.7-1-3.7,0s-1,2.7,0,3.7l23,23l-23,23
			C-434.9,406.6-435,407.4-435,408.1"/>
	</g>
</g>
</svg>
