<?xml version="1.0" encoding="utf-8"?>
<!-- Generator: Adobe Illustrator 19.1.0, SVG Export Plug-In . SVG Version: 6.00 Build 0)  -->
<!DOCTYPE svg PUBLIC "-//W3C//DTD SVG 1.1//EN" "http://www.w3.org/Graphics/SVG/1.1/DTD/svg11.dtd">
<svg version="1.1" id="Layer_1" xmlns="http://www.w3.org/2000/svg" xmlns:xlink="http://www.w3.org/1999/xlink" x="0px" y="0px"
	 viewBox="-440 353.4 38 63" style="enable-background:new -440 353.4 38 63;" xml:space="preserve">
<style type="text/css">
	.st0{fill:#FFFFFF;}
</style>
<g>
	<g>
		<path class="st0" d="M-402,385c0,1.8-0.7,3.4-1.9,4.6l-24.9,24.8c-2.6,2.6-6.7,2.6-9.3,0c-2.5-2.5-2.5-6.8,0-9.3l20.2-20.2
			l-20.2-20.2c-2.5-2.5-2.5-6.8,0-9.3c2.6-2.6,6.7-2.6,9.3,0l24.9,24.9C-402.7,381.6-402,383.1-402,385 M-436,409.8
			c0,0.7,0.3,1.4,0.8,1.9c1,1,2.7,1,3.7,0l24.8-24.8c1-1,1-2.7,0-3.7l-24.8-24.8c-1-1-2.7-1-3.7,0s-1,2.7,0,3.7l23,23l-23,23
			C-435.8,408.4-436,409.1-436,409.8"/>
	</g>
</g>
</svg>
