<?xml version="1.0" encoding="utf-8"?>
<!-- Generator: Adobe Illustrator 19.1.0, SVG Export Plug-In . SVG Version: 6.00 Build 0)  -->
<!DOCTYPE svg PUBLIC "-//W3C//DTD SVG 1.1//EN" "http://www.w3.org/Graphics/SVG/1.1/DTD/svg11.dtd">
<svg version="1.1" id="Layer_1" xmlns="http://www.w3.org/2000/svg" xmlns:xlink="http://www.w3.org/1999/xlink" x="0px" y="0px"
	 viewBox="-115 294 792 182" style="enable-background:new -115 294 792 182;" xml:space="preserve">
<style type="text/css">
	.st0{fill:#FFFFFF;}
	.st1{fill:#0055B8;}
	.st2{clip-path:url(#SVGID_2_);fill:#FFFFFF;}
	.st3{clip-path:url(#SVGID_4_);fill:#FFFFFF;}
	.st4{clip-path:url(#SVGID_6_);fill:#FFFFFF;}
	.st5{clip-path:url(#SVGID_8_);fill:#FFFFFF;}
	.st6{clip-path:url(#SVGID_10_);fill:#FFFFFF;}
	.st7{clip-path:url(#SVGID_12_);fill:#FFFFFF;}
	.st8{clip-path:url(#SVGID_14_);fill:#FFFFFF;}
	.st9{clip-path:url(#SVGID_16_);fill:#FFFFFF;}
	.st10{clip-path:url(#SVGID_18_);fill:#FFFFFF;}
	.st11{clip-path:url(#SVGID_20_);fill:#FFFFFF;}
	.st12{clip-path:url(#SVGID_22_);fill:#FFFFFF;}
	.st13{clip-path:url(#SVGID_24_);fill:#FFFFFF;}
	.st14{clip-path:url(#SVGID_26_);fill:#FFFFFF;}
	.st15{clip-path:url(#SVGID_28_);fill:#FFFFFF;}
	.st16{clip-path:url(#SVGID_30_);fill:#FFFFFF;}
	.st17{clip-path:url(#SVGID_32_);fill:#FFFFFF;}
	.st18{clip-path:url(#SVGID_34_);fill:#FFFFFF;}
	.st19{clip-path:url(#SVGID_36_);fill:#FFFFFF;}
	.st20{clip-path:url(#SVGID_38_);fill:#FFFFFF;}
	.st21{clip-path:url(#SVGID_40_);fill:#FFFFFF;}
	.st22{clip-path:url(#SVGID_42_);fill:#FFFFFF;}
	.st23{clip-path:url(#SVGID_44_);fill:#FFFFFF;}
	.st24{clip-path:url(#SVGID_46_);fill:#FFFFFF;}
	.st25{clip-path:url(#SVGID_48_);fill:#FFFFFF;}
	.st26{clip-path:url(#SVGID_50_);fill:#FFFFFF;}
	.st27{clip-path:url(#SVGID_52_);fill:#FFFFFF;}
	.st28{clip-path:url(#SVGID_54_);fill:#FFFFFF;}
	.st29{clip-path:url(#SVGID_56_);fill:#FFFFFF;}
	.st30{clip-path:url(#SVGID_58_);fill:#FFFFFF;}
</style>
<polygon class="st0" points="-30.7,396.9 3.8,417.1 3.8,360 -114.5,360 -114.5,476 -73.3,476 -73.3,422 "/>
<polygon class="st0" points="-73.3,473.4 -44.6,473.4 -44.6,473.4 "/>
<rect x="-44.6" y="473.4" class="st1" width="27.9" height="0.3"/>
<polygon class="st1" points="-44.6,473.4 -16.7,473.4 -16.7,473.4 "/>
<rect x="-44.6" y="433.2" class="st0" width="27.9" height="42.8"/>
<g>
	<defs>
		<rect id="SVGID_1_" x="-687.2" y="-432.8" width="1964.4" height="2099.6"/>
	</defs>
	<clipPath id="SVGID_2_">
		<use xlink:href="#SVGID_1_"  style="overflow:visible;"/>
	</clipPath>
	<path class="st2" d="M76.3,396.1c0,4.9,0.8,9,2,12.8c1.5,3.8,3.3,6.9,5.9,9.5s5.4,4.6,9,5.9c3.3,1.3,7.2,2,11.3,2
		c2.3,0,4.6-0.5,6.9-1.3c2.3-1,4.4-2,6.1-3.6c1.8-1.5,3.6-3.1,5.1-5.1c1.5-1.8,2.8-3.8,3.6-5.6l4.9,3.1c-1.3,2.3-3.1,4.4-4.9,6.7
		c-1.8,2-4.1,4.1-6.7,5.6s-5.4,2.8-8.5,3.8s-6.7,1.5-10.5,1.5s-7.2-0.5-10.5-1.3s-6.4-2-9.2-3.6c-2.8-1.5-5.4-3.3-7.4-5.6
		c-2.3-2-4.1-4.6-5.6-7.2s-2.6-5.4-3.6-8.5c-0.8-3.1-1.3-6.1-1.3-9.2s0.5-6.4,1.3-9.2c0.8-3.1,2-5.9,3.6-8.5s3.3-5.1,5.6-7.2
		c2.3-2.3,4.9-4.1,7.7-5.6s5.9-2.8,9.2-3.6c3.3-0.8,6.9-1.3,10.8-1.3c3.6,0,6.9,0.5,10,1.5s5.9,2.3,8.5,3.8s4.9,3.6,6.7,5.6
		c2,2,3.6,4.4,5.1,6.7l-5.1,2.8c-2.8-5.4-6.1-9.5-9.5-12c-3.6-2.6-7.4-3.8-12-3.8c-3.8,0-7.7,0.8-11,2c-3.3,1.5-6.4,3.6-9,6.1
		s-4.6,5.9-5.9,9.7C77.1,387.1,76.3,391.2,76.3,396.1"/>
</g>
<g>
	<defs>
		<rect id="SVGID_3_" x="-687.2" y="-432.8" width="1964.4" height="2099.6"/>
	</defs>
	<clipPath id="SVGID_4_">
		<use xlink:href="#SVGID_3_"  style="overflow:visible;"/>
	</clipPath>
	<path class="st3" d="M178.3,431.4c-3.6,0-6.9-0.5-10-1.3c-3.3-0.8-6.1-2-9-3.6s-5.4-3.3-7.7-5.6c-2.3-2.3-4.1-4.6-5.9-7.2
		c-1.5-2.6-2.8-5.6-3.6-8.7s-1.3-6.1-1.3-9.5c0-3.3,0.5-6.4,1.3-9.5s2-5.9,3.6-8.5c1.5-2.6,3.6-4.9,5.9-7.2c2.3-2,4.9-3.8,7.7-5.4
		s5.6-2.8,9-3.6c3.3-0.8,6.7-1.3,10-1.3s6.9,0.5,10,1.3c3.3,0.8,6.1,2,9,3.6s5.4,3.3,7.7,5.4c2.3,2,4.1,4.6,5.9,7.2
		c1.5,2.6,2.8,5.4,3.6,8.5s1.3,6.1,1.3,9.5c0,3.3-0.5,6.4-1.3,9.5s-2,5.9-3.6,8.7c-1.5,2.6-3.6,5.1-5.9,7.2
		c-2.3,2.3-4.9,4.1-7.7,5.6s-5.6,2.8-9,3.6C185.2,430.9,181.9,431.4,178.3,431.4 M178.3,428.1c3.8,0,7.4-0.8,10.2-2.6
		c3.1-1.5,5.4-3.8,7.4-6.7s3.6-6.4,4.6-10.2c1-4.1,1.5-8.5,1.5-13.1s-0.5-9-1.5-12.8s-2.6-7.2-4.6-10s-4.6-5.1-7.4-6.7
		c-3.1-1.5-6.4-2.3-10.2-2.3s-7.4,0.8-10.5,2.3s-5.6,3.8-7.4,6.7c-2,2.8-3.6,6.1-4.6,10s-1.5,8.2-1.5,12.8c0,4.6,0.5,9,1.5,13.1
		s2.6,7.4,4.6,10.2s4.6,5.1,7.4,6.7C170.8,427.3,174.4,428.1,178.3,428.1"/>
</g>
<g>
	<defs>
		<rect id="SVGID_5_" x="-687.2" y="-432.8" width="1964.4" height="2099.6"/>
	</defs>
	<clipPath id="SVGID_6_">
		<use xlink:href="#SVGID_5_"  style="overflow:visible;"/>
	</clipPath>
	<polygon class="st4" points="229.2,362 240.8,362 267.2,414 267.9,414 293.8,362 305.3,362 305.3,429.9 293.8,429.9 293.8,374.3 
		293.3,374.3 265.6,429.9 263.1,429.9 234.9,374.6 234.1,374.6 234.1,429.9 229.2,429.9 	"/>
</g>
<g>
	<defs>
		<rect id="SVGID_7_" x="-687.2" y="-432.8" width="1964.4" height="2099.6"/>
	</defs>
	<clipPath id="SVGID_8_">
		<use xlink:href="#SVGID_7_"  style="overflow:visible;"/>
	</clipPath>
	<polygon class="st5" points="327.6,362 339.4,362 365.8,414 366.3,414 392.4,362 403.7,362 403.7,429.9 392.4,429.9 392.4,374.3 
		391.9,374.3 364,429.9 361.7,429.9 333.5,374.6 332.7,374.6 332.7,429.9 327.6,429.9 	"/>
</g>
<g>
	<defs>
		<rect id="SVGID_9_" x="-687.2" y="-432.8" width="1964.4" height="2099.6"/>
	</defs>
	<clipPath id="SVGID_10_">
		<use xlink:href="#SVGID_9_"  style="overflow:visible;"/>
	</clipPath>
	<path class="st6" d="M426.5,409.7v-28.2c0-12.3-0.3-19.2-0.3-19.2h12.3H470v5.4c0,0-14.1-0.8-31.5-0.8c0,3.3-0.3,8.2-0.3,14.6v11
		c12.6,0,24.3-0.5,24.3-0.5v5.6c0,0-12.3-0.5-24.3-0.5v12.6c0,6.9,0,12,0.3,15.4c17.4,0,31.5-0.8,31.5-0.8v5.4h-31.5
		c-2.3,0-10,0-12.3,0C426.2,429.9,426.5,423.5,426.5,409.7"/>
</g>
<g>
	<defs>
		<rect id="SVGID_11_" x="-687.2" y="-432.8" width="1964.4" height="2099.6"/>
	</defs>
	<clipPath id="SVGID_12_">
		<use xlink:href="#SVGID_11_"  style="overflow:visible;"/>
	</clipPath>
	<path class="st7" d="M486.2,409.7v-28.2c0-12.3-0.3-19-0.3-19c5.9-0.3,13.8-0.8,18.7-0.8c16.9,0,28.2,3.8,28.2,18.2
		c0,11.3-7.4,17.4-18.4,19.5c1.3,1.5,2.8,2.8,4.1,4.6l22.3,25.9h-14.9l-18.7-21.8l-4.9-5.4l0.8-4.6c9.7,0,16.9-5.4,16.9-17.2
		c0-13.3-6.7-15.1-18.7-15.1c-1.3,0-1.8,0-3.1,0.3c0,3.1-0.3,8.2-0.3,15.6v28.2c0,13.3,0.3,20.2,0.3,20.2c-1.3,0-9.5,0-12.3,0
		C485.6,429.9,486.2,423.5,486.2,409.7"/>
</g>
<g>
	<defs>
		<rect id="SVGID_13_" x="-687.2" y="-432.8" width="1964.4" height="2099.6"/>
	</defs>
	<clipPath id="SVGID_14_">
		<use xlink:href="#SVGID_13_"  style="overflow:visible;"/>
	</clipPath>
	<path class="st8" d="M563,396.1c0,4.9,0.8,9,2,12.8c1.5,3.8,3.3,6.9,5.9,9.5s5.4,4.6,9,5.9c3.3,1.3,7.2,2,11.3,2
		c2.3,0,4.6-0.5,6.9-1.3c2.3-1,4.4-2,6.1-3.6c1.8-1.5,3.6-3.1,5.1-5.1c1.5-1.8,2.8-3.8,3.6-5.6l4.9,3.1c-1.3,2.3-3.1,4.4-4.9,6.7
		c-1.8,2-4.1,4.1-6.7,5.6c-2.6,1.5-5.4,2.8-8.5,3.8s-6.7,1.5-10.5,1.5c-3.8,0-7.2-0.5-10.5-1.3c-3.3-0.8-6.4-2-9.2-3.6
		c-2.8-1.6-5.4-3.3-7.4-5.6c-2.3-2.3-4.1-4.6-5.6-7.2s-2.6-5.4-3.6-8.5c-0.8-3.1-1.3-6.1-1.3-9.2s0.5-6.4,1.3-9.2
		c0.8-3.1,2-5.9,3.6-8.5c1.5-2.6,3.3-5.1,5.6-7.2c2.3-2.3,4.9-4.1,7.7-5.6c2.8-1.5,5.9-2.8,9.2-3.6c3.3-0.8,6.9-1.3,10.8-1.3
		c3.6,0,6.9,0.5,10,1.5s5.9,2.3,8.5,3.8s4.9,3.6,6.7,5.6c2,2,3.6,4.4,5.1,6.7l-4.9,3.3c-2.8-5.4-6.1-9.5-9.5-12
		c-3.6-2.6-7.4-3.8-12-3.8c-3.8,0-7.7,0.8-11,2c-3.3,1.5-6.4,3.6-9,6.1c-2.6,2.6-4.6,5.9-5.9,9.7C563.8,387.1,563,391.2,563,396.1"
		/>
</g>
<g>
	<defs>
		<rect id="SVGID_15_" x="-687.2" y="-432.8" width="1964.4" height="2099.6"/>
	</defs>
	<clipPath id="SVGID_16_">
		<use xlink:href="#SVGID_15_"  style="overflow:visible;"/>
	</clipPath>
	<path class="st9" d="M634,409.7v-28.2c0-12.3-0.3-19.2-0.3-19.2H646h31.5v5.4c0,0-14.1-0.8-31.5-0.8c0,3.3-0.3,8.2-0.3,14.6v11
		c12.6,0,24.3-0.5,24.3-0.5v5.6c0,0-12.3-0.5-24.3-0.5v12.6c0,6.9,0,12,0.3,15.4c17.4,0,31.5-0.8,31.5-0.8v5.4H646
		c-2.3,0-10,0-12.3,0C633.4,429.9,634,423.5,634,409.7"/>
</g>
<g>
	<defs>
		<rect id="SVGID_17_" x="-687.2" y="-432.8" width="1964.4" height="2099.6"/>
	</defs>
	<clipPath id="SVGID_18_">
		<use xlink:href="#SVGID_17_"  style="overflow:visible;"/>
	</clipPath>
	<path class="st10" d="M69.4,466v-11.3c0-4.9-0.3-7.9-0.3-7.9c1.5,0,5.1-0.3,5.1-0.3s0,3.1,0,8.2v4.4h14.1v-4.4
		c0-4.9-0.3-7.9-0.3-7.9c1.5,0,5.1-0.3,5.1-0.3s-0.3,3.1-0.3,8.2v11.5c0,5.4,0.3,8.2,0.3,8.2c-1,0-4.1,0-5.1,0c0,0,0.3-2.6,0.3-8.2
		v-4.9H74.2v4.9c0,5.4,0.3,8.2,0.3,8.2c-1,0-4.1,0-5.1,0C69.4,474.2,69.4,471.7,69.4,466"/>
</g>
<g>
	<defs>
		<rect id="SVGID_19_" x="-687.2" y="-432.8" width="1964.4" height="2099.6"/>
	</defs>
	<clipPath id="SVGID_20_">
		<use xlink:href="#SVGID_19_"  style="overflow:visible;"/>
	</clipPath>
	<path class="st11" d="M134.5,475c-1.5,0-2.8-0.3-4.1-0.5c-1.3-0.3-2.6-0.8-3.6-1.5c-1-0.5-2-1.5-3.1-2.3c-1-1-1.8-1.8-2.3-3.1
		c-0.8-1-1.3-2.3-1.5-3.6c-0.3-1.3-0.5-2.6-0.5-3.8s0.3-2.6,0.5-3.8c0.3-1.3,0.8-2.3,1.5-3.3c0.8-1,1.5-2,2.3-2.8
		c1-0.8,2-1.5,3.1-2.3c1-0.5,2.3-1,3.6-1.5c1.3-0.3,2.8-0.5,4.1-0.5c1.5,0,2.8,0.3,4.1,0.5c1.3,0.3,2.6,0.8,3.6,1.5
		c1,0.5,2,1.3,3.1,2.3c1,0.8,1.8,1.8,2.3,2.8c0.8,1,1.3,2.3,1.5,3.3c0.3,1.3,0.5,2.6,0.5,3.8s-0.3,2.6-0.5,3.8
		c-0.3,1.3-0.8,2.6-1.5,3.6c-0.8,1-1.5,2-2.3,3.1c-1,1-2,1.8-3.1,2.3c-1,0.5-2.3,1-3.6,1.5C137.3,474.7,136,475,134.5,475
		 M134.5,473.4c1.5,0,3.1-0.3,4.1-1c1.3-0.8,2.3-1.5,3.1-2.8s1.5-2.6,1.8-4.4c0.5-1.5,0.8-3.3,0.8-5.4c0-1.8-0.3-3.6-0.8-5.4
		c-0.5-1.5-1-3.1-1.8-4.1c-0.8-1.3-1.8-2-3.1-2.8c-1.3-0.5-2.6-1-4.1-1s-3.1,0.3-4.4,1c-1.3,0.5-2.3,1.5-3.1,2.8
		c-0.8,1-1.5,2.6-1.8,4.1c-0.5,1.5-0.5,3.3-0.5,5.4s0.3,3.8,0.5,5.4c0.5,1.5,1,3.1,1.8,4.4s1.8,2,3.1,2.8
		C131.4,473.2,132.9,473.4,134.5,473.4"/>
</g>
<g>
	<defs>
		<rect id="SVGID_21_" x="-687.2" y="-432.8" width="1964.4" height="2099.6"/>
	</defs>
	<clipPath id="SVGID_22_">
		<use xlink:href="#SVGID_21_"  style="overflow:visible;"/>
	</clipPath>
	<polygon class="st12" points="172.9,446.3 177.8,446.3 188.5,467.8 188.8,467.8 199.5,446.3 204.1,446.3 204.1,474.2 199.5,474.2 
		199.5,451.4 199.3,451.4 187.8,474.2 187,474.2 175.5,451.7 174.9,451.7 174.9,474.2 172.9,474.2 	"/>
</g>
<g>
	<defs>
		<rect id="SVGID_23_" x="-687.2" y="-432.8" width="1964.4" height="2099.6"/>
	</defs>
	<clipPath id="SVGID_24_">
		<use xlink:href="#SVGID_23_"  style="overflow:visible;"/>
	</clipPath>
	<path class="st13" d="M228.2,466v-11.3c0-4.9-0.3-7.9-0.3-7.9h5.1h12.8v2.3c0,0-5.6-0.3-12.8-0.3c0,1.3,0,3.3,0,5.9v4.4
		c5.1,0,9.7-0.3,9.7-0.3v2.3c0,0-4.9-0.3-9.7-0.3v5.1c0,2.8,0,4.9,0,6.1c6.9,0,12.8-0.3,12.8-0.3v2.3H233c-1,0-4.1,0-5.1,0
		C228,474.2,228.2,471.7,228.2,466"/>
</g>
<g>
	<defs>
		<rect id="SVGID_25_" x="-687.2" y="-432.8" width="1964.4" height="2099.6"/>
	</defs>
	<clipPath id="SVGID_26_">
		<use xlink:href="#SVGID_25_"  style="overflow:visible;"/>
	</clipPath>
	<polygon class="st14" points="304.8,446.3 309.4,446.3 320.4,467.8 320.7,467.8 331.2,446.3 336.1,446.3 336.1,474.2 331.2,474.2 
		331.2,451.4 331.2,451.4 319.7,474.2 318.6,474.2 307.1,451.7 306.9,451.7 306.9,474.2 304.8,474.2 	"/>
</g>
<g>
	<defs>
		<rect id="SVGID_27_" x="-687.2" y="-432.8" width="1964.4" height="2099.6"/>
	</defs>
	<clipPath id="SVGID_28_">
		<use xlink:href="#SVGID_27_"  style="overflow:visible;"/>
	</clipPath>
	<path class="st15" d="M377.3,475c-1.5,0-2.8-0.3-4.1-0.5c-1.3-0.3-2.6-0.8-3.6-1.5c-1-0.5-2-1.5-3.1-2.3c-1-1-1.8-1.8-2.3-3.1
		c-0.8-1-1.3-2.3-1.5-3.6c-0.3-1.3-0.5-2.6-0.5-3.8s0.3-2.6,0.5-3.8c0.3-1.3,0.8-2.3,1.5-3.3c0.8-1,1.5-2,2.3-2.8
		c1-0.8,2-1.5,3.1-2.3c1-0.5,2.3-1,3.6-1.5c1.3-0.3,2.8-0.5,4.1-0.5c1.5,0,2.8,0.3,4.1,0.5c1.3,0.3,2.6,0.8,3.6,1.5
		c1,0.5,2,1.3,3.1,2.3c1,0.8,1.8,1.8,2.3,2.8c0.8,1,1.3,2.3,1.5,3.3c0.3,1.3,0.5,2.6,0.5,3.8s-0.3,2.6-0.5,3.8
		c-0.3,1.3-0.8,2.6-1.5,3.6c-0.8,1-1.5,2-2.3,3.1c-1,1-2,1.8-3.1,2.3c-1,0.5-2.3,1-3.6,1.5C380.1,474.7,378.6,475,377.3,475
		 M377.3,473.4c1.5,0,3.1-0.3,4.1-1c1.3-0.8,2.3-1.5,3.1-2.8c0.8-1.3,1.5-2.6,1.8-4.4c0.5-1.5,0.8-3.3,0.8-5.4
		c0-1.8-0.3-3.6-0.8-5.4c-0.5-1.5-1-3.1-1.8-4.1c-0.8-1.3-1.8-2-3.1-2.8c-1.3-0.5-2.6-1-4.1-1s-3.1,0.3-4.4,1
		c-1.3,0.5-2.3,1.5-3.1,2.8c-0.8,1-1.5,2.6-1.8,4.1c-0.5,1.5-0.5,3.3-0.5,5.4s0.3,3.8,0.5,5.4c0.5,1.5,1,3.1,1.8,4.4s1.8,2,3.1,2.8
		C374.2,473.2,375.5,473.4,377.3,473.4"/>
</g>
<g>
	<defs>
		<rect id="SVGID_29_" x="-687.2" y="-432.8" width="1964.4" height="2099.6"/>
	</defs>
	<clipPath id="SVGID_30_">
		<use xlink:href="#SVGID_29_"  style="overflow:visible;"/>
	</clipPath>
	<path class="st16" d="M418.3,466v-11.3c0-4.9-0.3-7.7-0.3-7.7c2.3-0.3,5.6-0.3,7.7-0.3c6.9,0,11.5,1.5,11.5,7.4
		c0,4.6-3.1,6.9-7.4,7.9c0.5,0.5,1,1.3,1.8,1.8l9,10.5h-5.9l-7.7-9l-2-2l0.3-2c4.1,0,6.9-2,6.9-6.9c0-5.4-2.8-6.1-7.7-6.1
		c-0.5,0-0.8,0-1.3,0c0,1.3,0,3.3,0,6.4v11.5c0,5.4,0.3,8.2,0.3,8.2c-0.5,0-3.8,0-5.1,0C418,474.2,418.3,471.7,418.3,466"/>
</g>
<g>
	<defs>
		<rect id="SVGID_31_" x="-687.2" y="-432.8" width="1964.4" height="2099.6"/>
	</defs>
	<clipPath id="SVGID_32_">
		<use xlink:href="#SVGID_31_"  style="overflow:visible;"/>
	</clipPath>
	<path class="st17" d="M469.8,448.9c-5.1,0-9,0.3-9,0.3v-2.3h9h5.1h9v2.3c0,0-3.8-0.3-9-0.3c0,1.3,0,3.3,0,5.9v11.5
		c0,5.4,0.3,8.2,0.3,8.2c-1,0-4.1,0-5.1,0c0,0,0.3-2.6,0.3-8.2v-11.5C470,452.2,469.8,450.1,469.8,448.9"/>
</g>
<g>
	<defs>
		<rect id="SVGID_33_" x="-687.2" y="-432.8" width="1964.4" height="2099.6"/>
	</defs>
	<clipPath id="SVGID_34_">
		<use xlink:href="#SVGID_33_"  style="overflow:visible;"/>
	</clipPath>
	<path class="st18" d="M520.7,446.6c3.6,0,7.4,0.8,10.2,1.5l-0.5,4.6h-1.3c-1.3-2.8-4.4-4.4-8.2-4.4c-6.9,0-10,5.9-10,12.3
		c0,6.9,3.1,12.6,9.7,12.6c1.8,0,4.1-0.5,5.6-1.5c0,0,0-1.3,0-2.3c0-3.3,0-7.7,0-7.7c2.6,0,4.9-0.3,4.9-0.3s0,3.8,0,7.7
		c0,1.8,0,3.6,0,3.6c-3.6,1.3-7.7,2.3-11.5,2.3c-9,0-13.8-5.1-13.8-13.8C505.9,451.9,511.3,446.6,520.7,446.6"/>
</g>
<g>
	<defs>
		<rect id="SVGID_35_" x="-687.2" y="-432.8" width="1964.4" height="2099.6"/>
	</defs>
	<clipPath id="SVGID_36_">
		<use xlink:href="#SVGID_35_"  style="overflow:visible;"/>
	</clipPath>
	<path class="st19" d="M556.9,474.5c1.8-4.6,5.9-15.4,10.5-27.7l3.6-0.8l10.5,28.2h-1.3c-1.8,0-1.8,0-3.6,0c-0.8-1.8-3.6-9.2-3.6-10
		h-9.7c-0.3,0.5-2.8,8.2-3.6,9.7C558.6,474.2,557.4,474.5,556.9,474.5 M563.8,462.4h8.5l-4.4-11.3h-0.3c-0.3,1-0.5,1.8-1,2.8
		C565.8,456.8,564.5,459.6,563.8,462.4"/>
</g>
<g>
	<defs>
		<rect id="SVGID_37_" x="-687.2" y="-432.8" width="1964.4" height="2099.6"/>
	</defs>
	<clipPath id="SVGID_38_">
		<use xlink:href="#SVGID_37_"  style="overflow:visible;"/>
	</clipPath>
	<path class="st20" d="M620.4,446.6c3.6,0,7.4,0.8,10.2,1.5l-0.5,4.6h-1.3c-1.3-2.8-4.4-4.4-8.2-4.4c-6.9,0-10,5.9-10,12.3
		c0,6.9,3.1,12.6,9.7,12.6c1.8,0,4.1-0.5,5.6-1.5c0,0,0-1.3,0-2.3c0-3.3,0-7.7,0-7.7c2.6,0,4.9-0.3,4.9-0.3s0,3.8,0,7.7
		c0,1.8,0,3.6,0,3.6c-3.6,1.3-7.7,2.3-11.5,2.3c-9,0-13.8-5.1-13.8-13.8C605.5,451.9,610.6,446.6,620.4,446.6"/>
</g>
<g>
	<defs>
		<rect id="SVGID_39_" x="-687.2" y="-432.8" width="1964.4" height="2099.6"/>
	</defs>
	<clipPath id="SVGID_40_">
		<use xlink:href="#SVGID_39_"  style="overflow:visible;"/>
	</clipPath>
	<path class="st21" d="M659.3,466v-11.3c0-4.9-0.3-7.9-0.3-7.9h5.1h12.8v2.3c0,0-5.6-0.3-12.8-0.3c0,1.3,0,3.3,0,5.9v4.4
		c5.1,0,9.7-0.3,9.7-0.3v2.3c0,0-4.9-0.3-9.7-0.3v5.1c0,2.8,0,4.9,0,6.1c6.9,0,12.8-0.3,12.8-0.3v2.3h-12.8c-1,0-4.1,0-5.1,0
		C659.1,474.2,659.3,471.7,659.3,466"/>
</g>
<g>
	<defs>
		<rect id="SVGID_41_" x="-687.2" y="-432.8" width="1964.4" height="2099.6"/>
	</defs>
	<clipPath id="SVGID_42_">
		<use xlink:href="#SVGID_41_"  style="overflow:visible;"/>
	</clipPath>
	<path class="st22" d="M96.6,319c0,0-0.8,2-2,5.9l-3.1,8.7c-1.5,4.1-2,6.1-2,6.1h-3.1c0,0-0.5-2-2-6.1l-2.3-6.7l-2.3,6.7
		c-1.5,4.1-2,6.1-2,6.1h-3.3c0,0-0.5-2-2-6.1l-3.1-8.7c-1-3.6-1.8-5.9-1.8-5.9c2.3,0,4.9,0,4.9,0s0.5,2.3,2,5.9l3.1,8.7
		c0,0.3,0.3,0.5,0.3,0.8c0-0.3,0.3-0.5,0.3-0.8l3.1-8.7c1-2.8,1.5-4.9,1.8-5.6h1.3c0.3,0.8,1,2.8,2,5.6l3.1,8.7
		c0.3,0.3,0.3,0.5,0.3,0.8c0-0.3,0.3-0.5,0.3-0.8l3.1-8.7c1-3.6,1.5-5.9,1.5-5.9S95.8,319,96.6,319"/>
</g>
<g>
	<defs>
		<rect id="SVGID_43_" x="-687.2" y="-432.8" width="1964.4" height="2099.6"/>
	</defs>
	<clipPath id="SVGID_44_">
		<use xlink:href="#SVGID_43_"  style="overflow:visible;"/>
	</clipPath>
	<path class="st23" d="M103.2,333.6v-8.7c0-3.6,0-5.9,0-5.9c1,0,4.6,0,4.6,0s0,2.3,0,6.1v3.3h9.5v-3.6c0-3.6,0-5.9,0-5.9
		c1,0,4.4,0,4.4,0s-0.3,2.3-0.3,6.1v8.7c0,4.1,0.3,6.1,0.3,6.1c-0.8,0-3.8,0-4.6,0c0,0,0-2,0-6.1v-4.1h-9.5v3.6c0,4.1,0,6.1,0,6.1
		c-0.8,0-3.8,0-4.6,0C103.2,339.7,103.2,337.7,103.2,333.6"/>
</g>
<g>
	<defs>
		<rect id="SVGID_45_" x="-687.2" y="-432.8" width="1964.4" height="2099.6"/>
	</defs>
	<clipPath id="SVGID_46_">
		<use xlink:href="#SVGID_45_"  style="overflow:visible;"/>
	</clipPath>
	<path class="st24" d="M129.6,329.5c0-6.9,4.1-10.8,11.3-10.8s11,3.8,11,10.5c0,6.9-4.1,10.8-11.3,10.8
		C133.7,340,129.6,336.2,129.6,329.5 M147.3,330c0-6.1-1.8-10-6.7-10c-4.6,0-6.1,3.6-6.1,8.7c0,5.9,2,10,6.7,10
		C145.5,338.7,147.3,334.9,147.3,330"/>
</g>
<g>
	<defs>
		<rect id="SVGID_47_" x="-687.2" y="-432.8" width="1964.4" height="2099.6"/>
	</defs>
	<clipPath id="SVGID_48_">
		<use xlink:href="#SVGID_47_"  style="overflow:visible;"/>
	</clipPath>
	<path class="st25" d="M160.1,333.6v-8.7c0-3.6,0-5.9,0-5.9c1,0,4.6,0,4.6,0s0,2.3,0,6.1v8.7v4.6c5.1,0,10.2-0.3,10.2-0.3v1.8h-10.2
		c-0.8,0-3.8,0-4.6,0C160.1,339.7,160.1,337.7,160.1,333.6"/>
</g>
<g>
	<defs>
		<rect id="SVGID_49_" x="-687.2" y="-432.8" width="1964.4" height="2099.6"/>
	</defs>
	<clipPath id="SVGID_50_">
		<use xlink:href="#SVGID_49_"  style="overflow:visible;"/>
	</clipPath>
	<path class="st26" d="M181.9,333.6v-8.7c0-3.6,0-5.9,0-5.9h14.9v1.8c0,0-5.1-0.3-10.2-0.3v4.4v3.3c3.6,0,7.2-0.3,7.2-0.3v1.8
		c0,0-3.1-0.3-7.2-0.3v3.8v4.6c5.1,0,10.2-0.3,10.2-0.3v1.8h-10.3c-0.8,0-3.8,0-4.6,0C181.9,339.7,181.9,337.7,181.9,333.6"/>
</g>
<g>
	<defs>
		<rect id="SVGID_51_" x="-687.2" y="-432.8" width="1964.4" height="2099.6"/>
	</defs>
	<clipPath id="SVGID_52_">
		<use xlink:href="#SVGID_51_"  style="overflow:visible;"/>
	</clipPath>
	<path class="st27" d="M212.6,327.4c2.6,1,5.1,2.8,5.1,6.1c0,4.1-3.6,6.4-7.7,6.4c-3.3,0-5.6-0.5-6.7-0.8L203,335h1
		c1.3,2.3,3.1,3.3,5.4,3.3s4.1-1.3,4.1-3.6c0-2-2.3-3.3-5.9-4.6c-3.1-1.3-5.1-2.8-5.1-5.9c0-3.8,3.6-5.6,7.4-5.6
		c2.6,0,5.4,0.5,6.9,0.8l-0.5,3.6h-1c-0.8-1.8-3.1-3.1-5.1-3.1s-3.6,1-3.6,2.8s1.8,2.6,3.6,3.3L212.6,327.4z"/>
</g>
<g>
	<defs>
		<rect id="SVGID_53_" x="-687.2" y="-432.8" width="1964.4" height="2099.6"/>
	</defs>
	<clipPath id="SVGID_54_">
		<use xlink:href="#SVGID_53_"  style="overflow:visible;"/>
	</clipPath>
	<path class="st28" d="M223.1,339.7l7.4-20.7l3.6-0.8l7.9,21.3h-1c-1.5,0-3.6,0-3.6,0l-2.8-7.4h-6.9l-2.6,7.4
		C224.4,339.7,223.6,339.7,223.1,339.7 M228.2,330.8h5.9l-3.1-8.2L228.2,330.8z"/>
</g>
<g>
	<defs>
		<rect id="SVGID_55_" x="-687.2" y="-432.8" width="1964.4" height="2099.6"/>
	</defs>
	<clipPath id="SVGID_56_">
		<use xlink:href="#SVGID_55_"  style="overflow:visible;"/>
	</clipPath>
	<path class="st29" d="M249.5,333.6v-8.7c0-3.6,0-5.9,0-5.9c1,0,4.6-0.3,4.6-0.3s0,2.3,0,6.1v8.7v4.6c5.1,0,10.2-0.3,10.2-0.3v1.8
		h-10.2c-0.8,0-3.8,0-4.6,0C249.2,339.7,249.5,337.7,249.5,333.6"/>
</g>
<g>
	<defs>
		<rect id="SVGID_57_" x="-687.2" y="-432.8" width="1964.4" height="2099.6"/>
	</defs>
	<clipPath id="SVGID_58_">
		<use xlink:href="#SVGID_57_"  style="overflow:visible;"/>
	</clipPath>
	<path class="st30" d="M271,333.6v-8.7c0-3.6,0-5.9,0-5.9h14.9v1.8c0,0-5.1-0.3-10.2-0.3v4.4v3.3c3.6,0,7.2-0.3,7.2-0.3v1.8
		c0,0-3.1-0.3-7.2-0.3v3.8v4.6c5.1,0,10.2-0.3,10.2-0.3v1.8h-10.2c-0.8,0-3.8,0-4.6,0C271,339.7,271,337.7,271,333.6"/>
</g>
</svg>
