<?xml version="1.0" encoding="utf-8"?>
<!-- Generator: Adobe Illustrator 19.1.0, SVG Export Plug-In . SVG Version: 6.00 Build 0)  -->
<!DOCTYPE svg PUBLIC "-//W3C//DTD SVG 1.1//EN" "http://www.w3.org/Graphics/SVG/1.1/DTD/svg11.dtd">
<svg version="1.1" id="Layer_1" xmlns="http://www.w3.org/2000/svg" xmlns:xlink="http://www.w3.org/1999/xlink" x="0px" y="0px"
	 viewBox="-115 294 792 182" style="enable-background:new -115 294 792 182;" xml:space="preserve">
<style type="text/css">
	.st0{fill:#E2231A;}
	.st1{fill:#FFFFFF;}
	.st2{fill:#0055B8;}
	.st3{clip-path:url(#SVGID_2_);fill:#FFFFFF;}
	.st4{clip-path:url(#SVGID_4_);fill:#FFFFFF;}
	.st5{clip-path:url(#SVGID_6_);fill:#FFFFFF;}
	.st6{clip-path:url(#SVGID_8_);fill:#FFFFFF;}
	.st7{clip-path:url(#SVGID_10_);fill:#FFFFFF;}
	.st8{clip-path:url(#SVGID_12_);fill:#FFFFFF;}
	.st9{clip-path:url(#SVGID_14_);fill:#FFFFFF;}
	.st10{clip-path:url(#SVGID_16_);fill:#FFFFFF;}
	.st11{clip-path:url(#SVGID_18_);fill:#FFFFFF;}
	.st12{clip-path:url(#SVGID_20_);fill:#FFFFFF;}
	.st13{clip-path:url(#SVGID_22_);fill:#FFFFFF;}
	.st14{clip-path:url(#SVGID_24_);fill:#FFFFFF;}
	.st15{clip-path:url(#SVGID_26_);fill:#FFFFFF;}
	.st16{clip-path:url(#SVGID_28_);fill:#FFFFFF;}
	.st17{clip-path:url(#SVGID_30_);fill:#FFFFFF;}
	.st18{clip-path:url(#SVGID_32_);fill:#FFFFFF;}
	.st19{clip-path:url(#SVGID_34_);fill:#FFFFFF;}
	.st20{clip-path:url(#SVGID_36_);fill:#FFFFFF;}
	.st21{clip-path:url(#SVGID_38_);fill:#FFFFFF;}
	.st22{clip-path:url(#SVGID_40_);fill:#FFFFFF;}
	.st23{clip-path:url(#SVGID_42_);fill:#E2231A;}
	.st24{clip-path:url(#SVGID_44_);fill:#E2231A;}
	.st25{clip-path:url(#SVGID_46_);fill:#E2231A;}
	.st26{clip-path:url(#SVGID_48_);fill:#E2231A;}
	.st27{clip-path:url(#SVGID_50_);fill:#E2231A;}
	.st28{clip-path:url(#SVGID_52_);fill:#E2231A;}
	.st29{clip-path:url(#SVGID_54_);fill:#E2231A;}
	.st30{clip-path:url(#SVGID_56_);fill:#E2231A;}
	.st31{clip-path:url(#SVGID_58_);fill:#E2231A;}
</style>
<polygon class="st0" points="-31.2,396.4 3.3,416.6 3.3,359.5 -115,359.5 -115,475.5 -73.8,475.5 -73.8,421.5 "/>
<polygon class="st1" points="-73.8,472.9 -45.1,472.9 -45.1,472.9 "/>
<polygon class="st1" points="-45.1,432.7 -17.2,432.7 -17.2,475.5 3.3,475.5 3.3,416.6 -31.2,396.4 -73.8,421.5 -73.8,475.5 
	-45.1,475.5 "/>
<rect x="-45.1" y="472.9" class="st2" width="27.9" height="0.3"/>
<polygon class="st2" points="-45.1,472.9 -17.2,472.9 -17.2,472.9 "/>
<rect x="-45.1" y="432.7" class="st0" width="27.9" height="42.8"/>
<g>
	<g>
		<g>
			<g>
				<defs>
					<rect id="SVGID_1_" x="-687.7" y="-433.3" width="1964.4" height="2099.6"/>
				</defs>
				<clipPath id="SVGID_2_">
					<use xlink:href="#SVGID_1_"  style="overflow:visible;"/>
				</clipPath>
				<path class="st3" d="M75.8,395.6c0,4.9,0.8,9,2,12.8c1.5,3.8,3.3,6.9,5.9,9.5c2.6,2.6,5.4,4.6,9,5.9c3.3,1.3,7.2,2,11.3,2
					c2.3,0,4.6-0.5,6.9-1.3c2.3-1,4.4-2,6.1-3.6c1.8-1.5,3.6-3.1,5.1-5.1c1.5-1.8,2.8-3.8,3.6-5.6l4.9,3.1c-1.3,2.3-3.1,4.4-4.9,6.7
					c-1.8,2-4.1,4.1-6.7,5.6c-2.6,1.5-5.4,2.8-8.5,3.8s-6.7,1.5-10.5,1.5s-7.2-0.5-10.5-1.3s-6.4-2-9.2-3.6
					c-2.8-1.5-5.4-3.3-7.4-5.6c-2.3-2-4.1-4.6-5.6-7.2s-2.6-5.4-3.6-8.5c-0.8-3.1-1.3-6.1-1.3-9.2s0.5-6.4,1.3-9.2
					c0.8-3.1,2-5.9,3.6-8.5s3.3-5.1,5.6-7.2c2.3-2.3,4.9-4.1,7.7-5.6s5.9-2.8,9.2-3.6c3.3-0.8,6.9-1.3,10.8-1.3
					c3.6,0,6.9,0.5,10,1.5s5.9,2.3,8.5,3.8s4.9,3.6,6.7,5.6c2,2,3.6,4.4,5.1,6.7l-5.1,2.8c-2.8-5.4-6.1-9.5-9.5-12
					c-3.6-2.6-7.4-3.8-12-3.8c-3.8,0-7.7,0.8-11,2c-3.3,1.5-6.4,3.6-9,6.1s-4.6,5.9-5.9,9.7C76.6,386.6,75.8,390.7,75.8,395.6"/>
			</g>
		</g>
	</g>
	<g>
		<g>
			<g>
				<defs>
					<rect id="SVGID_3_" x="-687.7" y="-433.3" width="1964.4" height="2099.6"/>
				</defs>
				<clipPath id="SVGID_4_">
					<use xlink:href="#SVGID_3_"  style="overflow:visible;"/>
				</clipPath>
				<path class="st4" d="M177.8,430.9c-3.6,0-6.9-0.5-10-1.3c-3.3-0.8-6.1-2-9-3.6s-5.4-3.3-7.7-5.6c-2.3-2.3-4.1-4.6-5.9-7.2
					c-1.5-2.6-2.8-5.6-3.6-8.7c-0.8-3.1-1.3-6.1-1.3-9.5c0-3.3,0.5-6.4,1.3-9.5c0.8-3.1,2-5.9,3.6-8.5c1.5-2.6,3.6-4.9,5.9-7.2
					c2.3-2,4.9-3.8,7.7-5.4s5.6-2.8,9-3.6c3.3-0.8,6.7-1.3,10-1.3s6.9,0.5,10,1.3c3.3,0.8,6.1,2,9,3.6s5.4,3.3,7.7,5.4
					c2.3,2,4.1,4.6,5.9,7.2c1.5,2.6,2.8,5.4,3.6,8.5c0.8,3.1,1.3,6.1,1.3,9.5c0,3.3-0.5,6.4-1.3,9.5s-2,5.9-3.6,8.7
					c-1.5,2.6-3.6,5.1-5.9,7.2c-2.3,2.3-4.9,4.1-7.7,5.6c-2.8,1.5-5.6,2.8-9,3.6C184.7,430.4,181.4,430.9,177.8,430.9 M177.8,427.6
					c3.8,0,7.4-0.8,10.2-2.6c3.1-1.5,5.4-3.8,7.4-6.7s3.6-6.4,4.6-10.2c1-4.1,1.5-8.5,1.5-13.1s-0.5-9-1.5-12.8s-2.6-7.2-4.6-10
					s-4.6-5.1-7.4-6.7c-3.1-1.5-6.4-2.3-10.2-2.3c-3.8,0-7.4,0.8-10.5,2.3s-5.6,3.8-7.4,6.7c-2,2.8-3.6,6.1-4.6,10
					s-1.5,8.2-1.5,12.8c0,4.6,0.5,9,1.5,13.1s2.6,7.4,4.6,10.2s4.6,5.1,7.4,6.7C170.3,426.8,173.9,427.6,177.8,427.6"/>
			</g>
		</g>
	</g>
	<g>
		<g>
			<g>
				<defs>
					<rect id="SVGID_5_" x="-687.7" y="-433.3" width="1964.4" height="2099.6"/>
				</defs>
				<clipPath id="SVGID_6_">
					<use xlink:href="#SVGID_5_"  style="overflow:visible;"/>
				</clipPath>
				<polygon class="st5" points="228.7,361.5 240.3,361.5 266.7,413.5 267.4,413.5 293.3,361.5 304.8,361.5 304.8,429.4 
					293.3,429.4 293.3,373.8 292.8,373.8 265.1,429.4 262.6,429.4 234.4,374.1 233.6,374.1 233.6,429.4 228.7,429.4 				"/>
			</g>
		</g>
	</g>
	<g>
		<g>
			<g>
				<defs>
					<rect id="SVGID_7_" x="-687.7" y="-433.3" width="1964.4" height="2099.6"/>
				</defs>
				<clipPath id="SVGID_8_">
					<use xlink:href="#SVGID_7_"  style="overflow:visible;"/>
				</clipPath>
				<polygon class="st6" points="327.1,361.5 338.9,361.5 365.3,413.5 365.8,413.5 391.9,361.5 403.2,361.5 403.2,429.4 
					391.9,429.4 391.9,373.8 391.4,373.8 363.5,429.4 361.2,429.4 333,374.1 332.2,374.1 332.2,429.4 327.1,429.4 				"/>
			</g>
		</g>
	</g>
	<g>
		<g>
			<g>
				<defs>
					<rect id="SVGID_9_" x="-687.7" y="-433.3" width="1964.4" height="2099.6"/>
				</defs>
				<clipPath id="SVGID_10_">
					<use xlink:href="#SVGID_9_"  style="overflow:visible;"/>
				</clipPath>
				<path class="st7" d="M426,409.2V381c0-12.3-0.3-19.2-0.3-19.2H438h31.5v5.4c0,0-14.1-0.8-31.5-0.8c0,3.3-0.3,8.2-0.3,14.6v11
					c12.6,0,24.3-0.5,24.3-0.5v5.6c0,0-12.3-0.5-24.3-0.5v12.6c0,6.9,0,12,0.3,15.4c17.4,0,31.5-0.8,31.5-0.8v5.4H438
					c-2.3,0-10,0-12.3,0C425.7,429.4,426,423,426,409.2"/>
			</g>
		</g>
	</g>
	<g>
		<g>
			<g>
				<defs>
					<rect id="SVGID_11_" x="-687.7" y="-433.3" width="1964.4" height="2099.6"/>
				</defs>
				<clipPath id="SVGID_12_">
					<use xlink:href="#SVGID_11_"  style="overflow:visible;"/>
				</clipPath>
				<path class="st8" d="M485.7,409.2V381c0-12.3-0.3-19-0.3-19c5.9-0.3,13.8-0.8,18.7-0.8c16.9,0,28.2,3.8,28.2,18.2
					c0,11.3-7.4,17.4-18.4,19.5c1.3,1.5,2.8,2.8,4.1,4.6l22.3,25.9h-14.9l-18.7-21.8l-4.9-5.4l0.8-4.6c9.7,0,16.9-5.4,16.9-17.2
					c0-13.3-6.7-15.1-18.7-15.1c-1.3,0-1.8,0-3.1,0.3c0,3.1-0.3,8.2-0.3,15.6v28.2c0,13.3,0.3,20.2,0.3,20.2c-1.3,0-9.5,0-12.3,0
					C485.1,429.4,485.7,423,485.7,409.2"/>
			</g>
		</g>
	</g>
	<g>
		<g>
			<g>
				<defs>
					<rect id="SVGID_13_" x="-687.7" y="-433.3" width="1964.4" height="2099.6"/>
				</defs>
				<clipPath id="SVGID_14_">
					<use xlink:href="#SVGID_13_"  style="overflow:visible;"/>
				</clipPath>
				<path class="st9" d="M562.5,395.6c0,4.9,0.8,9,2,12.8c1.5,3.8,3.3,6.9,5.9,9.5c2.6,2.6,5.4,4.6,9,5.9c3.3,1.3,7.2,2,11.3,2
					c2.3,0,4.6-0.5,6.9-1.3c2.3-1,4.4-2,6.1-3.6c1.8-1.5,3.6-3.1,5.1-5.1c1.5-1.8,2.8-3.8,3.6-5.6l4.9,3.1c-1.3,2.3-3.1,4.4-4.9,6.7
					c-1.8,2-4.1,4.1-6.7,5.6c-2.6,1.5-5.4,2.8-8.5,3.8s-6.7,1.5-10.5,1.5s-7.2-0.5-10.5-1.3s-6.4-2-9.2-3.6s-5.4-3.3-7.4-5.6
					c-2.3-2.3-4.1-4.6-5.6-7.2s-2.6-5.4-3.6-8.5c-0.8-3.1-1.3-6.1-1.3-9.2s0.5-6.4,1.3-9.2c0.8-3.1,2-5.9,3.6-8.5
					c1.5-2.6,3.3-5.1,5.6-7.2c2.3-2.3,4.9-4.1,7.7-5.6s5.9-2.8,9.2-3.6c3.3-0.8,6.9-1.3,10.8-1.3c3.6,0,6.9,0.5,10,1.5
					s5.9,2.3,8.5,3.8s4.9,3.6,6.7,5.6c2,2,3.6,4.4,5.1,6.7l-4.9,3.3c-2.8-5.4-6.1-9.5-9.5-12c-3.6-2.6-7.4-3.8-12-3.8
					c-3.8,0-7.7,0.8-11,2c-3.3,1.5-6.4,3.6-9,6.1c-2.6,2.6-4.6,5.9-5.9,9.7C563.3,386.6,562.5,390.7,562.5,395.6"/>
			</g>
		</g>
	</g>
	<g>
		<g>
			<g>
				<defs>
					<rect id="SVGID_15_" x="-687.7" y="-433.3" width="1964.4" height="2099.6"/>
				</defs>
				<clipPath id="SVGID_16_">
					<use xlink:href="#SVGID_15_"  style="overflow:visible;"/>
				</clipPath>
				<path class="st10" d="M633.5,409.2V381c0-12.3-0.3-19.2-0.3-19.2h12.3H677v5.4c0,0-14.1-0.8-31.5-0.8c0,3.3-0.3,8.2-0.3,14.6v11
					c12.6,0,24.3-0.5,24.3-0.5v5.6c0,0-12.3-0.5-24.3-0.5v12.6c0,6.9,0,12,0.3,15.4c17.4,0,31.5-0.8,31.5-0.8v5.4h-31.5
					c-2.3,0-10,0-12.3,0C632.9,429.4,633.5,423,633.5,409.2"/>
			</g>
		</g>
	</g>
	<g>
		<g>
			<g>
				<defs>
					<rect id="SVGID_17_" x="-687.7" y="-433.3" width="1964.4" height="2099.6"/>
				</defs>
				<clipPath id="SVGID_18_">
					<use xlink:href="#SVGID_17_"  style="overflow:visible;"/>
				</clipPath>
				<path class="st11" d="M68.9,465.5v-11.3c0-4.9-0.3-7.9-0.3-7.9c1.5,0,5.1-0.3,5.1-0.3s0,3.1,0,8.2v4.4h14.1v-4.4
					c0-4.9-0.3-7.9-0.3-7.9c1.5,0,5.1-0.3,5.1-0.3s-0.3,3.1-0.3,8.2v11.5c0,5.4,0.3,8.2,0.3,8.2c-1,0-4.1,0-5.1,0
					c0,0,0.3-2.6,0.3-8.2v-4.9H73.7v4.9c0,5.4,0.3,8.2,0.3,8.2c-1,0-4.1,0-5.1,0C68.9,473.7,68.9,471.2,68.9,465.5"/>
			</g>
		</g>
	</g>
	<g>
		<g>
			<g>
				<defs>
					<rect id="SVGID_19_" x="-687.7" y="-433.3" width="1964.4" height="2099.6"/>
				</defs>
				<clipPath id="SVGID_20_">
					<use xlink:href="#SVGID_19_"  style="overflow:visible;"/>
				</clipPath>
				<path class="st12" d="M134,474.5c-1.5,0-2.8-0.3-4.1-0.5c-1.3-0.3-2.6-0.8-3.6-1.5c-1-0.5-2-1.5-3.1-2.3c-1-1-1.8-1.8-2.3-3.1
					c-0.8-1-1.3-2.3-1.5-3.6c-0.3-1.3-0.5-2.6-0.5-3.8s0.3-2.6,0.5-3.8c0.3-1.3,0.8-2.3,1.5-3.3c0.8-1,1.5-2,2.3-2.8
					c1-0.8,2-1.5,3.1-2.3c1-0.5,2.3-1,3.6-1.5c1.3-0.3,2.8-0.5,4.1-0.5c1.5,0,2.8,0.3,4.1,0.5c1.3,0.3,2.6,0.8,3.6,1.5
					c1,0.5,2,1.3,3.1,2.3c1,0.8,1.8,1.8,2.3,2.8c0.8,1,1.3,2.3,1.5,3.3c0.3,1.3,0.5,2.6,0.5,3.8s-0.3,2.6-0.5,3.8
					c-0.3,1.3-0.8,2.6-1.5,3.6c-0.8,1-1.5,2-2.3,3.1c-1,1-2,1.8-3.1,2.3c-1,0.5-2.3,1-3.6,1.5C136.8,474.2,135.5,474.5,134,474.5
					 M134,472.9c1.5,0,3.1-0.3,4.1-1c1.3-0.8,2.3-1.5,3.1-2.8c0.8-1.3,1.5-2.6,1.8-4.4c0.5-1.5,0.8-3.3,0.8-5.4
					c0-1.8-0.3-3.6-0.8-5.4c-0.5-1.5-1-3.1-1.8-4.1c-0.8-1.3-1.8-2-3.1-2.8c-1.3-0.5-2.6-1-4.1-1s-3.1,0.3-4.4,1
					c-1.3,0.5-2.3,1.5-3.1,2.8c-0.8,1-1.5,2.6-1.8,4.1c-0.5,1.5-0.5,3.3-0.5,5.4s0.3,3.8,0.5,5.4c0.5,1.5,1,3.1,1.8,4.4
					s1.8,2,3.1,2.8C130.9,472.7,132.4,472.9,134,472.9"/>
			</g>
		</g>
	</g>
	<g>
		<g>
			<g>
				<defs>
					<rect id="SVGID_21_" x="-687.7" y="-433.3" width="1964.4" height="2099.6"/>
				</defs>
				<clipPath id="SVGID_22_">
					<use xlink:href="#SVGID_21_"  style="overflow:visible;"/>
				</clipPath>
				<polygon class="st13" points="172.4,445.8 177.3,445.8 188,467.3 188.3,467.3 199,445.8 203.6,445.8 203.6,473.7 199,473.7 
					199,450.9 198.8,450.9 187.3,473.7 186.5,473.7 175,451.2 174.4,451.2 174.4,473.7 172.4,473.7 				"/>
			</g>
		</g>
	</g>
	<g>
		<g>
			<g>
				<defs>
					<rect id="SVGID_23_" x="-687.7" y="-433.3" width="1964.4" height="2099.6"/>
				</defs>
				<clipPath id="SVGID_24_">
					<use xlink:href="#SVGID_23_"  style="overflow:visible;"/>
				</clipPath>
				<path class="st14" d="M227.7,465.5v-11.3c0-4.9-0.3-7.9-0.3-7.9h5.1h12.8v2.3c0,0-5.6-0.3-12.8-0.3c0,1.3,0,3.3,0,5.9v4.4
					c5.1,0,9.7-0.3,9.7-0.3v2.3c0,0-4.9-0.3-9.7-0.3v5.1c0,2.8,0,4.9,0,6.1c6.9,0,12.8-0.3,12.8-0.3v2.3h-12.8c-1,0-4.1,0-5.1,0
					C227.5,473.7,227.7,471.2,227.7,465.5"/>
			</g>
		</g>
	</g>
	<g>
		<g>
			<g>
				<defs>
					<rect id="SVGID_25_" x="-687.7" y="-433.3" width="1964.4" height="2099.6"/>
				</defs>
				<clipPath id="SVGID_26_">
					<use xlink:href="#SVGID_25_"  style="overflow:visible;"/>
				</clipPath>
				<polygon class="st15" points="304.3,445.8 308.9,445.8 319.9,467.3 320.2,467.3 330.7,445.8 335.6,445.8 335.6,473.7 
					330.7,473.7 330.7,450.9 330.7,450.9 319.2,473.7 318.1,473.7 306.6,451.2 306.4,451.2 306.4,473.7 304.3,473.7 				"/>
			</g>
		</g>
	</g>
	<g>
		<g>
			<g>
				<defs>
					<rect id="SVGID_27_" x="-687.7" y="-433.3" width="1964.4" height="2099.6"/>
				</defs>
				<clipPath id="SVGID_28_">
					<use xlink:href="#SVGID_27_"  style="overflow:visible;"/>
				</clipPath>
				<path class="st16" d="M376.8,474.5c-1.5,0-2.8-0.3-4.1-0.5c-1.3-0.3-2.6-0.8-3.6-1.5c-1-0.5-2-1.5-3.1-2.3c-1-1-1.8-1.8-2.3-3.1
					c-0.8-1-1.3-2.3-1.5-3.6c-0.3-1.3-0.5-2.6-0.5-3.8s0.3-2.6,0.5-3.8c0.3-1.3,0.8-2.3,1.5-3.3c0.8-1,1.5-2,2.3-2.8
					c1-0.8,2-1.5,3.1-2.3c1-0.5,2.3-1,3.6-1.5c1.3-0.3,2.8-0.5,4.1-0.5c1.5,0,2.8,0.3,4.1,0.5c1.3,0.3,2.6,0.8,3.6,1.5
					c1,0.5,2,1.3,3.1,2.3c1,0.8,1.8,1.8,2.3,2.8c0.8,1,1.3,2.3,1.5,3.3c0.3,1.3,0.5,2.6,0.5,3.8s-0.3,2.6-0.5,3.8
					c-0.3,1.3-0.8,2.6-1.5,3.6c-0.8,1-1.5,2-2.3,3.1c-1,1-2,1.8-3.1,2.3c-1,0.5-2.3,1-3.6,1.5C379.6,474.2,378.1,474.5,376.8,474.5
					 M376.8,472.9c1.5,0,3.1-0.3,4.1-1c1.3-0.8,2.3-1.5,3.1-2.8c0.8-1.3,1.5-2.6,1.8-4.4c0.5-1.5,0.8-3.3,0.8-5.4
					c0-1.8-0.3-3.6-0.8-5.4c-0.5-1.5-1-3.1-1.8-4.1c-0.8-1.3-1.8-2-3.1-2.8c-1.3-0.5-2.6-1-4.1-1s-3.1,0.3-4.4,1
					c-1.3,0.5-2.3,1.5-3.1,2.8c-0.8,1-1.5,2.6-1.8,4.1c-0.5,1.5-0.5,3.3-0.5,5.4s0.3,3.8,0.5,5.4c0.5,1.5,1,3.1,1.8,4.4
					s1.8,2,3.1,2.8C373.7,472.7,375,472.9,376.8,472.9"/>
			</g>
		</g>
	</g>
	<g>
		<g>
			<g>
				<defs>
					<rect id="SVGID_29_" x="-687.7" y="-433.3" width="1964.4" height="2099.6"/>
				</defs>
				<clipPath id="SVGID_30_">
					<use xlink:href="#SVGID_29_"  style="overflow:visible;"/>
				</clipPath>
				<path class="st17" d="M417.8,465.5v-11.3c0-4.9-0.3-7.7-0.3-7.7c2.3-0.3,5.6-0.3,7.7-0.3c6.9,0,11.5,1.5,11.5,7.4
					c0,4.6-3.1,6.9-7.4,7.9c0.5,0.5,1,1.3,1.8,1.8l9,10.5h-5.9l-7.7-9l-2-2l0.3-2c4.1,0,6.9-2,6.9-6.9c0-5.4-2.8-6.1-7.7-6.1
					c-0.5,0-0.8,0-1.3,0c0,1.3,0,3.3,0,6.4v11.5c0,5.4,0.3,8.2,0.3,8.2c-0.5,0-3.8,0-5.1,0C417.5,473.7,417.8,471.2,417.8,465.5"/>
			</g>
		</g>
	</g>
	<g>
		<g>
			<g>
				<defs>
					<rect id="SVGID_31_" x="-687.7" y="-433.3" width="1964.4" height="2099.6"/>
				</defs>
				<clipPath id="SVGID_32_">
					<use xlink:href="#SVGID_31_"  style="overflow:visible;"/>
				</clipPath>
				<path class="st18" d="M469.3,448.4c-5.1,0-9,0.3-9,0.3v-2.3h9h5.1h9v2.3c0,0-3.8-0.3-9-0.3c0,1.3,0,3.3,0,5.9v11.5
					c0,5.4,0.3,8.2,0.3,8.2c-1,0-4.1,0-5.1,0c0,0,0.3-2.6,0.3-8.2v-11.5C469.5,451.7,469.3,449.6,469.3,448.4"/>
			</g>
		</g>
	</g>
	<g>
		<g>
			<g>
				<defs>
					<rect id="SVGID_33_" x="-687.7" y="-433.3" width="1964.4" height="2099.6"/>
				</defs>
				<clipPath id="SVGID_34_">
					<use xlink:href="#SVGID_33_"  style="overflow:visible;"/>
				</clipPath>
				<path class="st19" d="M520.2,446.1c3.6,0,7.4,0.8,10.2,1.5l-0.5,4.6h-1.3c-1.3-2.8-4.4-4.4-8.2-4.4c-6.9,0-10,5.9-10,12.3
					c0,6.9,3.1,12.6,9.7,12.6c1.8,0,4.1-0.5,5.6-1.5c0,0,0-1.3,0-2.3c0-3.3,0-7.7,0-7.7c2.6,0,4.9-0.3,4.9-0.3s0,3.8,0,7.7
					c0,1.8,0,3.6,0,3.6c-3.6,1.3-7.7,2.3-11.5,2.3c-9,0-13.8-5.1-13.8-13.8C505.4,451.4,510.8,446.1,520.2,446.1"/>
			</g>
		</g>
	</g>
	<g>
		<g>
			<g>
				<defs>
					<rect id="SVGID_35_" x="-687.7" y="-433.3" width="1964.4" height="2099.6"/>
				</defs>
				<clipPath id="SVGID_36_">
					<use xlink:href="#SVGID_35_"  style="overflow:visible;"/>
				</clipPath>
				<path class="st20" d="M556.4,474c1.8-4.6,5.9-15.4,10.5-27.7l3.6-0.8l10.5,28.2h-1.3c-1.8,0-1.8,0-3.6,0
					c-0.8-1.8-3.6-9.2-3.6-10h-9.7c-0.3,0.5-2.8,8.2-3.6,9.7C558.1,473.7,556.9,474,556.4,474 M563.3,461.9h8.5l-4.4-11.3h-0.3
					c-0.3,1-0.5,1.8-1,2.8C565.3,456.3,564,459.1,563.3,461.9"/>
			</g>
		</g>
	</g>
	<g>
		<g>
			<g>
				<defs>
					<rect id="SVGID_37_" x="-687.7" y="-433.3" width="1964.4" height="2099.6"/>
				</defs>
				<clipPath id="SVGID_38_">
					<use xlink:href="#SVGID_37_"  style="overflow:visible;"/>
				</clipPath>
				<path class="st21" d="M619.9,446.1c3.6,0,7.4,0.8,10.2,1.5l-0.5,4.6h-1.3c-1.3-2.8-4.4-4.4-8.2-4.4c-6.9,0-10,5.9-10,12.3
					c0,6.9,3.1,12.6,9.7,12.6c1.8,0,4.1-0.5,5.6-1.5c0,0,0-1.3,0-2.3c0-3.3,0-7.7,0-7.7c2.6,0,4.9-0.3,4.9-0.3s0,3.8,0,7.7
					c0,1.8,0,3.6,0,3.6c-3.6,1.3-7.7,2.3-11.5,2.3c-9,0-13.8-5.1-13.8-13.8C605,451.4,610.1,446.1,619.9,446.1"/>
			</g>
		</g>
	</g>
	<g>
		<g>
			<g>
				<defs>
					<rect id="SVGID_39_" x="-687.7" y="-433.3" width="1964.4" height="2099.6"/>
				</defs>
				<clipPath id="SVGID_40_">
					<use xlink:href="#SVGID_39_"  style="overflow:visible;"/>
				</clipPath>
				<path class="st22" d="M658.8,465.5v-11.3c0-4.9-0.3-7.9-0.3-7.9h5.1h12.8v2.3c0,0-5.6-0.3-12.8-0.3c0,1.3,0,3.3,0,5.9v4.4
					c5.1,0,9.7-0.3,9.7-0.3v2.3c0,0-4.9-0.3-9.7-0.3v5.1c0,2.8,0,4.9,0,6.1c6.9,0,12.8-0.3,12.8-0.3v2.3h-12.8c-1,0-4.1,0-5.1,0
					C658.6,473.7,658.8,471.2,658.8,465.5"/>
			</g>
		</g>
	</g>
	<g>
		<g>
			<g>
				<defs>
					<rect id="SVGID_41_" x="-687.7" y="-433.3" width="1964.4" height="2099.6"/>
				</defs>
				<clipPath id="SVGID_42_">
					<use xlink:href="#SVGID_41_"  style="overflow:visible;"/>
				</clipPath>
				<path class="st23" d="M96.1,318.5c0,0-0.8,2-2,5.9l-3.1,8.7c-1.5,4.1-2,6.1-2,6.1h-3.1c0,0-0.5-2-2-6.1l-2.3-6.7l-2.3,6.7
					c-1.5,4.1-2,6.1-2,6.1H74c0,0-0.5-2-2-6.1l-3.1-8.7c-1-3.6-1.8-5.9-1.8-5.9c2.3,0,4.9,0,4.9,0s0.5,2.3,2,5.9l3.1,8.7
					c0,0.3,0.3,0.5,0.3,0.8c0-0.3,0.3-0.5,0.3-0.8l3.1-8.7c1-2.8,1.5-4.9,1.8-5.6h1.3c0.3,0.8,1,2.8,2,5.6l3.1,8.7
					c0.3,0.3,0.3,0.5,0.3,0.8c0-0.3,0.3-0.5,0.3-0.8l3.1-8.7c1-3.6,1.5-5.9,1.5-5.9S95.3,318.5,96.1,318.5"/>
			</g>
		</g>
	</g>
	<g>
		<g>
			<g>
				<defs>
					<rect id="SVGID_43_" x="-687.7" y="-433.3" width="1964.4" height="2099.6"/>
				</defs>
				<clipPath id="SVGID_44_">
					<use xlink:href="#SVGID_43_"  style="overflow:visible;"/>
				</clipPath>
				<path class="st24" d="M102.7,333.1v-8.7c0-3.6,0-5.9,0-5.9c1,0,4.6,0,4.6,0s0,2.3,0,6.1v3.3h9.5v-3.6c0-3.6,0-5.9,0-5.9
					c1,0,4.4,0,4.4,0s-0.3,2.3-0.3,6.1v8.7c0,4.1,0.3,6.1,0.3,6.1c-0.8,0-3.8,0-4.6,0c0,0,0-2,0-6.1v-4.1h-9.5v3.6
					c0,4.1,0,6.1,0,6.1c-0.8,0-3.8,0-4.6,0C102.7,339.2,102.7,337.2,102.7,333.1"/>
			</g>
		</g>
	</g>
	<g>
		<g>
			<g>
				<defs>
					<rect id="SVGID_45_" x="-687.7" y="-433.3" width="1964.4" height="2099.6"/>
				</defs>
				<clipPath id="SVGID_46_">
					<use xlink:href="#SVGID_45_"  style="overflow:visible;"/>
				</clipPath>
				<path class="st25" d="M129.1,329c0-6.9,4.1-10.8,11.3-10.8s11,3.8,11,10.5c0,6.9-4.1,10.8-11.3,10.8
					C133.2,339.5,129.1,335.7,129.1,329 M146.8,329.5c0-6.1-1.8-10-6.7-10c-4.6,0-6.1,3.6-6.1,8.7c0,5.9,2,10,6.7,10
					C145,338.2,146.8,334.4,146.8,329.5"/>
			</g>
		</g>
	</g>
	<g>
		<g>
			<g>
				<defs>
					<rect id="SVGID_47_" x="-687.7" y="-433.3" width="1964.4" height="2099.6"/>
				</defs>
				<clipPath id="SVGID_48_">
					<use xlink:href="#SVGID_47_"  style="overflow:visible;"/>
				</clipPath>
				<path class="st26" d="M159.6,333.1v-8.7c0-3.6,0-5.9,0-5.9c1,0,4.6,0,4.6,0s0,2.3,0,6.1v8.7v4.6c5.1,0,10.2-0.3,10.2-0.3v1.8
					h-10.2c-0.8,0-3.8,0-4.6,0C159.6,339.2,159.6,337.2,159.6,333.1"/>
			</g>
		</g>
	</g>
	<g>
		<g>
			<g>
				<defs>
					<rect id="SVGID_49_" x="-687.7" y="-433.3" width="1964.4" height="2099.6"/>
				</defs>
				<clipPath id="SVGID_50_">
					<use xlink:href="#SVGID_49_"  style="overflow:visible;"/>
				</clipPath>
				<path class="st27" d="M181.4,333.1v-8.7c0-3.6,0-5.9,0-5.9h14.9v1.8c0,0-5.1-0.3-10.2-0.3v4.4v3.3c3.6,0,7.2-0.3,7.2-0.3v1.8
					c0,0-3.1-0.3-7.2-0.3v3.8v4.6c5.1,0,10.2-0.3,10.2-0.3v1.8H186c-0.8,0-3.8,0-4.6,0C181.4,339.2,181.4,337.2,181.4,333.1"/>
			</g>
		</g>
	</g>
	<g>
		<g>
			<g>
				<defs>
					<rect id="SVGID_51_" x="-687.7" y="-433.3" width="1964.4" height="2099.6"/>
				</defs>
				<clipPath id="SVGID_52_">
					<use xlink:href="#SVGID_51_"  style="overflow:visible;"/>
				</clipPath>
				<path class="st28" d="M212.1,326.9c2.6,1,5.1,2.8,5.1,6.1c0,4.1-3.6,6.4-7.7,6.4c-3.3,0-5.6-0.5-6.7-0.8l-0.3-4.1h1
					c1.3,2.3,3.1,3.3,5.4,3.3s4.1-1.3,4.1-3.6c0-2-2.3-3.3-5.9-4.6c-3.1-1.3-5.1-2.8-5.1-5.9c0-3.8,3.6-5.6,7.4-5.6
					c2.6,0,5.4,0.5,6.9,0.8l-0.5,3.6h-1c-0.8-1.8-3.1-3.1-5.1-3.1s-3.6,1-3.6,2.8s1.8,2.6,3.6,3.3L212.1,326.9z"/>
			</g>
		</g>
	</g>
	<g>
		<g>
			<g>
				<defs>
					<rect id="SVGID_53_" x="-687.7" y="-433.3" width="1964.4" height="2099.6"/>
				</defs>
				<clipPath id="SVGID_54_">
					<use xlink:href="#SVGID_53_"  style="overflow:visible;"/>
				</clipPath>
				<path class="st29" d="M222.6,339.2l7.4-20.7l3.6-0.8l7.9,21.3h-1c-1.5,0-3.6,0-3.6,0l-2.8-7.4h-6.9l-2.6,7.4
					C223.9,339.2,223.1,339.2,222.6,339.2 M227.7,330.3h5.9l-3.1-8.2L227.7,330.3z"/>
			</g>
		</g>
	</g>
	<g>
		<g>
			<g>
				<defs>
					<rect id="SVGID_55_" x="-687.7" y="-433.3" width="1964.4" height="2099.6"/>
				</defs>
				<clipPath id="SVGID_56_">
					<use xlink:href="#SVGID_55_"  style="overflow:visible;"/>
				</clipPath>
				<path class="st30" d="M249,333.1v-8.7c0-3.6,0-5.9,0-5.9c1,0,4.6-0.3,4.6-0.3s0,2.3,0,6.1v8.7v4.6c5.1,0,10.2-0.3,10.2-0.3v1.8
					h-10.2c-0.8,0-3.8,0-4.6,0C248.7,339.2,249,337.2,249,333.1"/>
			</g>
		</g>
	</g>
	<g>
		<g>
			<g>
				<defs>
					<rect id="SVGID_57_" x="-687.7" y="-433.3" width="1964.4" height="2099.6"/>
				</defs>
				<clipPath id="SVGID_58_">
					<use xlink:href="#SVGID_57_"  style="overflow:visible;"/>
				</clipPath>
				<path class="st31" d="M270.5,333.1v-8.7c0-3.6,0-5.9,0-5.9h14.9v1.8c0,0-5.1-0.3-10.2-0.3v4.4v3.3c3.6,0,7.2-0.3,7.2-0.3v1.8
					c0,0-3.1-0.3-7.2-0.3v3.8v4.6c5.1,0,10.2-0.3,10.2-0.3v1.8h-10.2c-0.8,0-3.8,0-4.6,0C270.5,339.2,270.5,337.2,270.5,333.1"/>
			</g>
		</g>
	</g>
</g>
</svg>
