<?xml version="1.0" encoding="utf-8"?>
<!-- Generator: Adobe Illustrator 19.1.0, SVG Export Plug-In . SVG Version: 6.00 Build 0)  -->
<!DOCTYPE svg PUBLIC "-//W3C//DTD SVG 1.1//EN" "http://www.w3.org/Graphics/SVG/1.1/DTD/svg11.dtd">
<svg version="1.1" id="Layer_1" xmlns="http://www.w3.org/2000/svg" xmlns:xlink="http://www.w3.org/1999/xlink" x="0px" y="0px"
	 viewBox="-261 135 500 500" style="enable-background:new -261 135 500 500;" xml:space="preserve">
<style type="text/css">
	.st0{fill:#050000;}
</style>
<g>
	<path class="st0" d="M-152.1,555.8l311.9-311.9c5.8-5.8,3.6-17-4.5-25.3c-8.1-8.1-19.5-10.1-25.3-4.5l-311.9,311.9
		c-5.8,5.8-3.6,17,4.5,25.3C-169.2,559.4-157.9,561.6-152.1,555.8z"/>
	<path class="st0" d="M159.9,526.1L-152,214.2c-5.8-5.8-17-3.6-25.3,4.5c-8.1,8.1-10.1,19.5-4.5,25.3l311.9,311.9
		c5.8,5.8,17,3.6,25.3-4.5C163.5,543.1,165.6,531.8,159.9,526.1z"/>
</g>
</svg>
