<?xml version="1.0" encoding="utf-8"?>
<!-- Generator: Adobe Illustrator 19.1.0, SVG Export Plug-In . SVG Version: 6.00 Build 0)  -->
<!DOCTYPE svg PUBLIC "-//W3C//DTD SVG 1.1//EN" "http://www.w3.org/Graphics/SVG/1.1/DTD/svg11.dtd">
<svg version="1.1" id="Layer_1" xmlns="http://www.w3.org/2000/svg" xmlns:xlink="http://www.w3.org/1999/xlink" x="0px" y="0px"
	 viewBox="-261 135 500 500" style="enable-background:new -261 135 500 500;" xml:space="preserve">
<g>
	<path d="M-194.6,267.9h367.2c6.8,0,12.2-7.9,12.2-17.5c0-9.6-5.5-17.5-12.2-17.5h-367.2c-6.8,0-12.2,7.9-12.2,17.5
		C-206.8,260-201.4,267.9-194.6,267.9z"/>
	<path d="M-194.6,537.1h367.2c6.8,0,12.2-7.9,12.2-17.5c0-9.6-5.5-17.5-12.2-17.5h-367.2c-6.8,0-12.2,7.9-12.2,17.5
		C-206.8,529.3-201.4,537.1-194.6,537.1z"/>
	<path d="M-194.6,402.5h367.2c6.8,0,12.2-7.9,12.2-17.5s-5.5-17.5-12.2-17.5h-367.2c-6.8,0-12.2,7.9-12.2,17.5
		S-201.4,402.5-194.6,402.5z"/>
</g>
</svg>
