<?xml version="1.0" encoding="utf-8"?>
<!-- Generator: Adobe Illustrator 19.1.0, SVG Export Plug-In . SVG Version: 6.00 Build 0)  -->
<!DOCTYPE svg PUBLIC "-//W3C//DTD SVG 1.1//EN" "http://www.w3.org/Graphics/SVG/1.1/DTD/svg11.dtd">
<svg version="1.1" id="Layer_1" xmlns="http://www.w3.org/2000/svg" xmlns:xlink="http://www.w3.org/1999/xlink" x="0px" y="0px"
	 viewBox="-261 135 500 500" style="enable-background:new -261 135 500 500;" xml:space="preserve">
<style type="text/css">
	.st0{fill:#FFFFFF;}
</style>
<g>
	<path class="st0" d="M-184.6,275.3h347.2c6.8,0,22.2-11.3,22.2-25c0-13.7-15.5-25-22.2-25h-347.2c-6.8,0-22.2,11.3-22.2,25
		C-206.8,264.1-191.4,275.3-184.6,275.3z"/>
	<path class="st0" d="M-184.6,544.7h347.2c6.8,0,22.2-11.3,22.2-25c0-13.7-15.5-25-22.2-25h-347.2c-6.8,0-22.2,11.3-22.2,25
		C-206.8,533.4-191.4,544.7-184.6,544.7z"/>
	<path class="st0" d="M-184.6,409.8h347.2c6.8,0,22.2-11.3,22.2-25s-15.5-25-22.2-25h-347.2c-6.8,0-22.2,11.3-22.2,25
		C-206.8,398.6-191.4,409.8-184.6,409.8z"/>
</g>
</svg>
