<?xml version="1.0" standalone="no"?><!DOCTYPE svg PUBLIC "-//W3C//DTD SVG 1.1//EN" "http://www.w3.org/Graphics/SVG/1.1/DTD/svg11.dtd"><svg width="100%" height="100%" viewBox="0 0 500 500" version="1.1" xmlns="http://www.w3.org/2000/svg" xmlns:xlink="http://www.w3.org/1999/xlink" xml:space="preserve" style="fill-rule:evenodd;clip-rule:evenodd;stroke-linejoin:round;stroke-miterlimit:1.41421;"><g><path d="M79.1,108.9l311.9,311.9c5.8,5.8 17,3.6 25.3,-4.5c8.1,-8.1 10.1,-19.5 4.5,-25.3l-311.9,-311.9c-5.8,-5.8 -17,-3.6 -25.3,4.5c-8.1,8.3 -10.2,19.5 -4.5,25.3Z" style="fill:#e2231a;fill-rule:nonzero;"/><path d="M391.1,79.3l-311.9,311.9c-5.8,5.8 -3.6,17 4.5,25.3c8.1,8.1 19.5,10.1 25.3,4.5l311.9,-312c5.8,-5.8 3.6,-17 -4.5,-25.3c-8.2,-8 -19.5,-10.2 -25.3,-4.4Z" style="fill:#e2231a;fill-rule:nonzero;"/></g></svg>