<?xml version="1.0" encoding="utf-8"?>
<!-- Generator: Adobe Illustrator 19.1.0, SVG Export Plug-In . SVG Version: 6.00 Build 0)  -->
<!DOCTYPE svg PUBLIC "-//W3C//DTD SVG 1.1//EN" "http://www.w3.org/Graphics/SVG/1.1/DTD/svg11.dtd">
<svg version="1.1" id="Layer_1" xmlns="http://www.w3.org/2000/svg" xmlns:xlink="http://www.w3.org/1999/xlink" x="0px" y="0px"
	 viewBox="-261 135 500 500" style="enable-background:new -261 135 500 500;" xml:space="preserve">
<style type="text/css">
	.st0{fill:#FFFFFF;}
</style>
<g>
	<path class="st0" d="M-181.9,243.9L130,555.8c5.8,5.8,17,3.6,25.3-4.5c8.1-8.1,10.1-19.5,4.5-25.3l-311.9-311.9
		c-5.8-5.8-17-3.6-25.3,4.5C-185.5,226.9-187.6,238.1-181.9,243.9z"/>
	<path class="st0" d="M130.1,214.3l-311.9,311.9c-5.8,5.8-3.6,17,4.5,25.3c8.1,8.1,19.5,10.1,25.3,4.5L159.9,244
		c5.8-5.8,3.6-17-4.5-25.3C147.2,210.7,135.9,208.5,130.1,214.3z"/>
</g>
</svg>
