<?xml version="1.0" encoding="utf-8"?>
<!-- Generator: Adobe Illustrator 19.1.0, SVG Export Plug-In . SVG Version: 6.00 Build 0)  -->
<svg version="1.1" id="Layer_1" xmlns:sketch="http://www.bohemiancoding.com/sketch/ns"
	 xmlns="http://www.w3.org/2000/svg" xmlns:xlink="http://www.w3.org/1999/xlink" x="0px" y="0px" viewBox="-281 373 48 48"
	 style="enable-background:new -281 373 48 48;" xml:space="preserve">
<style type="text/css">
	.st0{fill:#444445;}
</style>
<title>Selected_Check</title>
<desc>Created with Sketch.</desc>
<g>
	<title>Unselected_Check</title>
	<desc>Created with Sketch.</desc>
	<path class="st0" d="M-264.2,405.1l-0.9-0.9c-0.5-0.5-0.5-1.4,0-1.9l13.3-13.3c0.5-0.5,1.4-0.5,1.9,0l0.9,0.9
		c0.5,0.5,0.5,1.4,0,1.9l-13.3,13.3C-262.8,405.6-263.7,405.6-264.2,405.1z"/>
	<path class="st0" d="M-265.1,389.8l0.9-0.9c0.5-0.5,1.4-0.5,1.9,0l13.3,13.3c0.5,0.5,0.5,1.4,0,1.9l-0.9,0.9
		c-0.5,0.5-1.4,0.5-1.9,0l-13.3-13.3C-265.6,391.2-265.6,390.3-265.1,389.8z"/>
</g>
</svg>
